<mxfile host="app.diagrams.net" modified="2020-12-22T09:18:39.685Z" agent="5.0 (Windows NT 10.0; Win64; x64) AppleWebKit/537.36 (KHTML, like Gecko) Chrome/87.0.4280.88 Safari/537.36" etag="dDjSjr8UyYl-L4OcnUA3" version="14.1.1" type="github">
  <diagram id="C5RBs43oDa-KdzZeNtuy" name="Page-1">
    <mxGraphModel dx="868" dy="404" grid="1" gridSize="10" guides="1" tooltips="1" connect="1" arrows="1" fold="1" page="1" pageScale="1" pageWidth="827" pageHeight="1169" math="0" shadow="0">
      <root>
        <mxCell id="WIyWlLk6GJQsqaUBKTNV-0" />
        <mxCell id="WIyWlLk6GJQsqaUBKTNV-1" parent="WIyWlLk6GJQsqaUBKTNV-0" />
        <mxCell id="-HsLmX1t4-Cq3i4UOG58-7" style="edgeStyle=orthogonalEdgeStyle;rounded=0;orthogonalLoop=1;jettySize=auto;html=1;exitX=0.5;exitY=1;exitDx=0;exitDy=0;entryX=0.5;entryY=0;entryDx=0;entryDy=0;" edge="1" parent="WIyWlLk6GJQsqaUBKTNV-1" source="-HsLmX1t4-Cq3i4UOG58-0" target="-HsLmX1t4-Cq3i4UOG58-1">
          <mxGeometry relative="1" as="geometry" />
        </mxCell>
        <mxCell id="-HsLmX1t4-Cq3i4UOG58-0" value="Start" style="ellipse;whiteSpace=wrap;html=1;" vertex="1" parent="WIyWlLk6GJQsqaUBKTNV-1">
          <mxGeometry x="350" y="190" width="120" height="80" as="geometry" />
        </mxCell>
        <mxCell id="-HsLmX1t4-Cq3i4UOG58-9" style="edgeStyle=orthogonalEdgeStyle;rounded=0;orthogonalLoop=1;jettySize=auto;html=1;exitX=0.5;exitY=1;exitDx=0;exitDy=0;entryX=0.45;entryY=0;entryDx=0;entryDy=0;entryPerimeter=0;" edge="1" parent="WIyWlLk6GJQsqaUBKTNV-1" source="-HsLmX1t4-Cq3i4UOG58-1" target="-HsLmX1t4-Cq3i4UOG58-3">
          <mxGeometry relative="1" as="geometry" />
        </mxCell>
        <mxCell id="-HsLmX1t4-Cq3i4UOG58-1" value="loop&lt;br&gt;i=1;i&amp;lt;=25" style="rhombus;whiteSpace=wrap;html=1;" vertex="1" parent="WIyWlLk6GJQsqaUBKTNV-1">
          <mxGeometry x="370" y="330" width="80" height="80" as="geometry" />
        </mxCell>
        <mxCell id="-HsLmX1t4-Cq3i4UOG58-11" style="edgeStyle=orthogonalEdgeStyle;rounded=0;orthogonalLoop=1;jettySize=auto;html=1;exitX=1;exitY=0.5;exitDx=0;exitDy=0;entryX=1;entryY=0.5;entryDx=0;entryDy=0;" edge="1" parent="WIyWlLk6GJQsqaUBKTNV-1" source="-HsLmX1t4-Cq3i4UOG58-3" target="-HsLmX1t4-Cq3i4UOG58-1">
          <mxGeometry relative="1" as="geometry" />
        </mxCell>
        <mxCell id="-HsLmX1t4-Cq3i4UOG58-13" style="edgeStyle=orthogonalEdgeStyle;rounded=0;orthogonalLoop=1;jettySize=auto;html=1;exitX=0.5;exitY=1;exitDx=0;exitDy=0;" edge="1" parent="WIyWlLk6GJQsqaUBKTNV-1" source="-HsLmX1t4-Cq3i4UOG58-3" target="-HsLmX1t4-Cq3i4UOG58-12">
          <mxGeometry relative="1" as="geometry" />
        </mxCell>
        <mxCell id="-HsLmX1t4-Cq3i4UOG58-3" value="print hasil = i*i" style="rounded=1;whiteSpace=wrap;html=1;" vertex="1" parent="WIyWlLk6GJQsqaUBKTNV-1">
          <mxGeometry x="354" y="450" width="120" height="60" as="geometry" />
        </mxCell>
        <mxCell id="-HsLmX1t4-Cq3i4UOG58-12" value="END" style="ellipse;whiteSpace=wrap;html=1;" vertex="1" parent="WIyWlLk6GJQsqaUBKTNV-1">
          <mxGeometry x="350" y="540" width="120" height="80" as="geometry" />
        </mxCell>
      </root>
    </mxGraphModel>
  </diagram>
</mxfile>
